<?xml version="1.0" encoding="iso-8859-1"?>
<!-- Generator: Adobe Illustrator 19.0.0, SVG Export Plug-In . SVG Version: 6.00 Build 0)  -->
<svg version="1.1" id="Layer_1" xmlns="http://www.w3.org/2000/svg" xmlns:xlink="http://www.w3.org/1999/xlink" x="0px" y="0px"
	 viewBox="0 0 512 512" style="enable-background:new 0 0 512 512;" xml:space="preserve">
<path style="fill:#FED322;" d="M247.604,512c-83.209,0-161.52-40.686-209.484-108.836l0.142-0.385l-1.267-1.868
	C0.635,347.328-1.157,274.233,32.197,205.383l1.44-2.971l-2.469-2.191c-15.98-14.177-23.726-26.246-22.405-34.896l0.416-2.715
	c18.577-47.39,50.578-87.85,92.546-117.005C144.671,15.771,195.116,0,247.604,0c141.159,0,256.001,114.842,256.001,256
	S388.763,512,247.604,512z"/>
<circle style="fill:#FEDA44;" cx="196.545" cy="96.193" r="71.921"/>
<g>
	<path style="fill:#57565C;" d="M426.428,360.058C338.65,351.582,187.5,297.931,88.825,240.224
		c-23.524-13.757-41.932-26.5-55.152-37.819c-47.265,94.549-27.761,196.957,54.713,246.872
		c98.67,59.716,250.08,21.681,338.183-84.954c1.086-1.314,2.146-2.637,3.203-3.96C428.673,360.268,427.558,360.167,426.428,360.058z
		"/>
	<path style="fill:#57565C;" d="M231.986,215.534l43.181,0.071c6.92-21.388,3.64-41.736-9.913-50.651
		c-18.102-11.906-47.67,1.088-66.044,29.022s-18.594,60.231-0.492,72.138c13.554,8.915,33.537,3.867,50.435-10.958L231.986,215.534z
		"/>
	<path style="fill:#57565C;" d="M118.688,141.013l-43.181-0.071c-6.92,21.388-3.64,41.736,9.913,50.651
		c18.102,11.906,47.67-1.088,66.044-29.022s18.594-60.231,0.492-72.138c-13.554-8.915-33.537-3.867-50.435,10.958L118.688,141.013z"
		/>
</g>
<g>
</g>
<g>
</g>
<g>
</g>
<g>
</g>
<g>
</g>
<g>
</g>
<g>
</g>
<g>
</g>
<g>
</g>
<g>
</g>
<g>
</g>
<g>
</g>
<g>
</g>
<g>
</g>
<g>
</g>
</svg>
